<svg width="617" height="668" viewBox="0 0 617 668" fill="none" xmlns="http://www.w3.org/2000/svg">
<path d="M617 619.469C617 645.749 478.882 667.055 308.5 667.055C138.118 667.055 0 645.749 0 619.469C0 600.864 69.2334 584.746 170.133 576.927C211.74 573.693 258.752 571.882 308.5 571.882C328.951 571.882 348.933 572.189 368.259 572.772C510.04 577.07 617 596.34 617 619.469Z" fill="#3F3D56"/>
<path opacity="0.1" d="M268.694 629.191C334.098 629.191 387.118 622.547 387.118 614.352C387.118 606.157 334.098 599.513 268.694 599.513C203.29 599.513 150.27 606.157 150.27 614.352C150.27 622.547 203.29 629.191 268.694 629.191Z" fill="black"/>
<path d="M268.196 625.098C330.027 625.098 380.152 570.116 380.152 502.293C380.152 434.47 330.027 379.489 268.196 379.489C206.364 379.489 156.24 434.47 156.24 502.293C156.24 570.116 206.364 625.098 268.196 625.098Z" fill="#3F3D56"/>
<path d="M303.524 574.953H233.863V640.448H303.524V574.953Z" fill="#74BDE4"/>
<path d="M394.581 590.815L390.601 613.33L416.475 617.423L433.392 607.189L432.397 590.815H394.581Z" fill="#575A89"/>
<path d="M264.215 168.162C264.215 168.162 262.225 191.7 257.249 192.723C252.274 193.747 268.196 234.682 268.196 234.682H292.08L310.988 229.565L302.032 207.051C302.032 207.051 290.09 190.677 299.046 177.373C308.003 164.069 264.215 168.162 264.215 168.162Z" fill="#A0616A"/>
<path opacity="0.1" d="M264.215 168.162C264.215 168.162 262.225 191.7 257.249 192.723C252.274 193.747 268.196 234.682 268.196 234.682H292.08L310.988 229.565L302.032 207.051C302.032 207.051 290.09 190.677 299.046 177.373C308.003 164.069 264.215 168.162 264.215 168.162Z" fill="black"/>
<path d="M214.457 348.276C214.457 348.276 188.583 399.445 209.481 409.678C230.38 419.912 235.355 418.889 235.355 421.959C235.355 425.029 231.375 424.006 233.365 429.122C235.355 434.239 229.384 454.707 235.355 466.987C241.326 479.268 239.336 488.478 239.336 488.478C239.336 488.478 239.336 489.501 241.326 493.595C243.317 497.688 244.312 500.758 243.317 502.805C242.322 504.852 236.351 518.156 242.322 521.226C248.292 524.296 279.142 526.343 282.128 521.226C285.113 516.109 279.142 513.039 282.128 509.969C285.113 506.899 287.104 505.875 285.113 503.829C283.123 501.782 281.133 476.198 281.133 476.198C281.133 476.198 286.109 446.52 284.118 442.426C282.128 438.333 279.142 434.239 281.133 431.169C283.123 428.099 285.113 429.122 286.109 425.029C287.104 420.935 289.094 411.725 289.094 411.725L300.041 410.702L325.915 415.819C325.915 415.819 354.775 448.566 386.62 458.8C386.62 458.8 395.576 468.011 398.562 468.011C401.547 468.011 401.547 468.011 400.552 470.057C399.557 472.104 396.572 472.104 398.562 474.151C400.552 476.198 403.538 473.127 401.547 476.198C399.557 479.268 397.567 479.268 399.557 481.314C401.547 483.361 398.562 494.618 398.562 495.642C398.562 496.665 389.605 592.862 392.591 594.909C395.576 596.955 437.373 603.096 440.359 594.909C443.344 586.722 438.368 576.488 438.368 576.488C438.368 576.488 453.296 453.683 449.315 445.496C445.334 437.309 431.402 400.468 356.765 376.93C356.765 376.93 335.867 372.837 335.867 369.767C335.867 366.697 333.876 347.253 329.896 346.229C325.915 345.206 303.026 344.183 303.026 344.183L274.167 353.393L234.36 346.229L214.457 348.276Z" fill="#2F2E41"/>
<path d="M249.288 520.202L244.312 538.623C244.312 538.623 240.332 568.3 245.307 575.464C249.216 581.091 256.194 587.98 269.136 589.19C272.763 589.532 276.395 588.591 279.431 586.522C282.467 584.453 284.726 581.38 285.833 577.812C285.982 577.385 286.075 576.94 286.109 576.487C286.109 574.441 283.123 549.88 283.123 549.88L278.148 524.295L277.153 517.132L249.288 520.202Z" fill="#2F2E41"/>
<path d="M394.582 608.212C394.582 608.212 389.606 603.095 388.611 608.212C387.616 613.329 383.635 634.82 390.601 635.843C397.567 636.867 464.243 647.1 471.209 643.007C478.175 638.913 491.112 632.773 483.151 629.703C475.19 626.633 452.301 617.423 452.301 617.423C452.301 617.423 439.364 600.025 437.374 599.002C435.383 597.979 424.436 600.025 419.461 604.119C414.485 608.212 394.582 608.212 394.582 608.212Z" fill="#2F2E41"/>
<path d="M288.099 189.653C305.137 189.653 318.949 175.45 318.949 157.929C318.949 140.408 305.137 126.204 288.099 126.204C271.061 126.204 257.249 140.408 257.249 157.929C257.249 175.45 271.061 189.653 288.099 189.653Z" fill="#A0616A"/>
<path d="M285.113 229.565L273.171 216.261L259.934 189.654C259.934 189.654 250.283 186.584 248.292 191.7C246.302 196.817 210.476 213.191 210.476 213.191C210.476 213.191 219.433 299.154 215.452 307.341C211.471 315.528 204.505 348.276 210.476 351.346C216.447 354.416 244.312 351.346 253.268 355.44C262.225 359.533 288.099 359.533 295.065 354.416C302.031 349.3 304.021 345.206 310.987 348.276C316.918 350.89 330.782 261.534 334.773 234.906C335.11 232.67 334.831 230.381 333.967 228.299C333.104 226.218 331.691 224.426 329.889 223.127C320.96 216.686 304.878 205.587 302.031 207.051C298.05 209.098 285.113 229.565 285.113 229.565Z" fill="#575A89"/>
<path d="M327.905 225.471C330.242 226.071 332.345 227.393 333.93 229.258C335.515 231.124 336.507 233.443 336.773 235.905L344.823 310.411C344.823 310.411 324.92 354.416 314.968 324.738C305.017 295.06 327.905 225.471 327.905 225.471Z" fill="#575A89"/>
<path d="M325.915 317.574L347.808 311.434C347.808 311.434 351.789 340.088 355.77 340.088C359.75 340.088 341.837 356.462 332.881 354.416C323.925 352.369 310.987 345.205 309.992 340.088C308.997 334.972 318.949 313.481 318.949 313.481L325.915 317.574Z" fill="#575A89"/>
<path d="M264.811 171.614C266.909 166.858 266.545 161.309 268.279 156.4C269.207 153.772 270.714 151.4 272.682 149.469C274.65 147.539 277.025 146.102 279.622 145.272C282.219 144.441 284.967 144.24 287.653 144.682C290.338 145.125 292.887 146.2 295.102 147.824C297.332 149.46 299.569 151.758 302.292 151.446C305.225 151.109 307.84 147.745 310.536 148.978C313.524 150.345 312.717 155.852 315.745 157.124C317.338 157.793 319.221 156.762 320.141 155.266C320.944 153.693 321.382 151.95 321.42 150.173C321.838 145.808 322.215 141.189 320.375 137.233C319.6 135.892 318.926 134.493 318.356 133.047C318.034 131.697 317.905 130.307 317.972 128.919C317.956 123.788 317.592 118.437 315.081 114.004C312.295 109.084 307.145 105.939 301.772 104.566C296.4 103.193 290.771 103.404 285.255 103.884C276.136 104.678 266.626 106.38 259.441 112.209C258.465 112.943 257.625 113.851 256.96 114.89C256.33 116.124 255.884 117.45 255.639 118.821C254.085 125.326 251.756 131.608 248.705 137.526C247.237 140.034 246.037 142.698 245.127 145.472C244.365 148.291 244.416 151.504 246.011 153.926C247.309 155.899 249.385 156.95 251.016 158.563C252.632 160.161 253.388 163.234 255.178 164.444C256.741 165.5 258.613 164.754 260.207 165.874C262.253 167.311 262.401 170.463 264.811 171.614Z" fill="#2F2E41"/>
<path d="M290.089 244.915L293.075 238.774C293.075 238.774 336.862 252.078 345.818 264.359C345.818 264.359 367.712 250.031 379.654 252.078L391.596 254.125L354.775 287.896L308.002 283.803L290.089 244.915Z" fill="#F2F2F2"/>
<path d="M288.099 238.774L247.297 297.107L306.012 326.784C306.012 326.784 311.501 329.854 315.723 326.784L354.775 308.364L391.596 254.125L354.775 273.569C354.775 273.569 350.794 265.382 342.833 269.476L288.099 238.774Z" fill="#74BDE4"/>
<path d="M350.794 342.136L358.755 320.645C358.755 320.645 376.668 297.107 366.717 285.85C356.765 274.593 345.818 318.598 345.818 318.598L350.794 342.136Z" fill="#A0616A"/>
<path d="M258.938 338.705L276.31 324.223C276.31 324.223 303.289 313.104 300.173 298.232C297.056 283.359 266.118 315.777 266.118 315.777L258.938 338.705Z" fill="#A0616A"/>
<path opacity="0.1" d="M215.95 235.194H214.955C214.955 235.194 199.53 216.261 196.545 241.846C193.559 267.43 183.608 352.37 209.482 355.44C235.356 358.51 253.766 342.648 253.766 342.648C253.766 342.648 272.675 312.97 265.708 312.97C262.338 312.97 253.171 311.413 244.81 311.947C235.891 312.516 227.876 315.099 228.39 312.458C229.385 307.341 243.815 242.357 215.95 235.194Z" fill="black"/>
<path d="M214.457 215.237L210.476 213.19C210.476 213.19 194.554 216.261 191.568 241.845C188.583 267.429 178.631 352.369 204.505 355.439C230.379 358.509 265.21 351.346 265.21 351.346C265.21 351.346 272.176 312.457 265.21 312.457C258.244 312.457 222.418 317.574 223.413 312.457C224.408 307.341 242.321 222.401 214.457 215.237Z" fill="#575A89"/>
<path d="M336.364 330.368L347.338 313.072L354.277 341.625L336.364 349.812V330.368Z" fill="#575A89"/>
<path d="M176.869 55.262C191.709 55.262 203.739 42.8912 203.739 27.631C203.739 12.3708 191.709 0 176.869 0C162.03 0 150 12.3708 150 27.631C150 42.8912 162.03 55.262 176.869 55.262Z" fill="#F2F2F2"/>
<path d="M147.69 315H84V380.496H147.69V315Z" fill="#F2F2F2"/>
<path d="M405.24 55L421.361 83.7127L437.48 112.425H405.24H373L389.12 83.7127L405.24 55Z" fill="#F2F2F2"/>
<path d="M72.7141 115H0V185.477H72.7141V115Z" fill="#74BDE4"/>
</svg>
