<svg width="717" height="631" viewBox="0 0 717 631" fill="none" xmlns="http://www.w3.org/2000/svg">
<path d="M191.061 14.2172C176.371 18.331 147.494 27.9933 131.801 43.839C130.718 44.9324 130.319 46.5469 130.649 48.0736L153.372 153.287C154.093 156.626 157.979 157.996 160.537 155.822C177.153 141.695 203.734 133.08 217.008 129.426C221.54 128.178 224.261 123.493 223.247 118.8L202.15 21.1131C201.047 15.9917 195.999 12.8359 191.061 14.2172ZM119.163 46.5684C98.3325 38.6107 68.0426 41.7296 52.9635 44.042C47.8955 44.8218 44.5997 49.7796 45.7057 54.9004L66.8037 152.59C67.8178 157.286 72.2296 160.431 76.872 159.694C90.4764 157.543 118.258 154.421 139.224 160.437C142.443 161.361 145.407 158.514 144.687 155.183L121.949 49.898C121.619 48.3684 120.604 47.1198 119.163 46.5684Z" fill="#74BDE4"/>
<path d="M457.075 473.042V625.15H143.397C107.658 625.15 78.5801 591.031 78.5801 549.096C78.5801 507.16 107.658 473.042 143.397 473.042H457.075Z" fill="#F2F2F2"/>
<path d="M464.779 623.98C464.779 625.531 464.271 627.019 463.368 628.116C462.465 629.213 461.241 629.83 459.964 629.83H137.81C120.313 629.83 103.533 621.386 91.1606 606.355C78.7885 591.324 71.8379 570.938 71.8379 549.681C71.8379 528.424 78.7885 508.037 91.1606 493.006C103.533 477.976 120.313 469.531 137.81 469.531H459.964C461.241 469.531 462.466 470.148 463.369 471.245C464.272 472.342 464.779 473.83 464.779 475.382C464.779 476.933 464.272 478.421 463.369 479.518C462.466 480.616 461.241 481.232 459.964 481.232H137.81C122.867 481.232 108.537 488.443 97.9707 501.28C87.4047 514.117 81.4688 531.527 81.4688 549.681C81.4688 567.835 87.4047 585.245 97.9707 598.081C108.537 610.918 122.867 618.13 137.81 618.13H459.964C461.241 618.13 462.465 618.747 463.368 619.844C464.271 620.941 464.779 622.428 464.779 623.98Z" fill="#74BDE4"/>
<path d="M457.075 508.143H119.993C119.737 508.143 119.492 508.02 119.312 507.8C119.131 507.581 119.03 507.283 119.03 506.973C119.03 506.662 119.131 506.365 119.312 506.145C119.492 505.926 119.737 505.803 119.993 505.803H457.075C457.331 505.803 457.576 505.926 457.756 506.145C457.937 506.365 458.038 506.662 458.038 506.973C458.038 507.283 457.937 507.581 457.756 507.8C457.576 508.02 457.331 508.143 457.075 508.143Z" fill="#CCCCCC"/>
<path d="M457.075 536.225H119.993C119.737 536.225 119.492 536.102 119.312 535.882C119.131 535.663 119.03 535.365 119.03 535.055C119.03 534.745 119.131 534.447 119.312 534.227C119.492 534.008 119.737 533.885 119.993 533.885H457.075C457.331 533.885 457.576 534.008 457.756 534.227C457.937 534.447 458.038 534.745 458.038 535.055C458.038 535.365 457.937 535.663 457.756 535.882C457.576 536.102 457.331 536.225 457.075 536.225Z" fill="#CCCCCC"/>
<path d="M457.075 564.306H119.993C119.737 564.306 119.492 564.183 119.312 563.963C119.131 563.744 119.03 563.446 119.03 563.136C119.03 562.826 119.131 562.528 119.312 562.309C119.492 562.089 119.737 561.966 119.993 561.966H457.075C457.331 561.966 457.576 562.089 457.756 562.309C457.937 562.528 458.038 562.826 458.038 563.136C458.038 563.446 457.937 563.744 457.756 563.963C457.576 564.183 457.331 564.306 457.075 564.306Z" fill="#CCCCCC"/>
<path d="M457.075 592.388H119.993C119.737 592.388 119.492 592.265 119.312 592.045C119.131 591.826 119.03 591.528 119.03 591.218C119.03 590.908 119.131 590.61 119.312 590.391C119.492 590.171 119.737 590.048 119.993 590.048H457.075C457.331 590.048 457.576 590.171 457.756 590.391C457.937 590.61 458.038 590.908 458.038 591.218C458.038 591.528 457.937 591.826 457.756 592.045C457.576 592.265 457.331 592.388 457.075 592.388Z" fill="#CCCCCC"/>
<path d="M699.502 501.674L620.948 620.118L376.693 381.015C348.863 353.772 343.841 305.04 365.498 272.385C387.155 239.731 427.418 235.328 455.247 262.571L699.502 501.674Z" fill="#F2F2F2"/>
<path d="M627.552 625.079C626.75 626.287 625.587 627.058 624.317 627.224C623.047 627.39 621.776 626.937 620.781 625.964L369.926 380.399C356.301 367.062 347.596 347.696 345.724 326.561C343.853 305.426 348.969 284.254 359.947 267.701C370.925 251.149 386.865 240.572 404.262 238.299C421.658 236.025 439.085 242.241 452.71 255.578L703.565 501.142C704.058 501.624 704.468 502.219 704.771 502.894C705.075 503.568 705.266 504.308 705.334 505.072C705.401 505.837 705.345 506.609 705.167 507.347C704.988 508.084 704.693 508.772 704.296 509.371C703.899 509.969 703.409 510.467 702.853 510.835C702.298 511.203 701.689 511.435 701.06 511.517C700.431 511.599 699.794 511.529 699.187 511.313C698.581 511.096 698.015 510.736 697.522 510.253L446.667 264.689C440.906 259.045 434.287 254.835 427.186 252.3C420.086 249.765 412.644 248.954 405.285 249.914C397.927 250.874 390.797 253.586 384.301 257.894C377.805 262.203 372.072 268.024 367.429 275.026C362.786 282.027 359.323 290.071 357.239 298.698C355.155 307.325 354.491 316.367 355.284 325.306C356.077 334.246 358.312 342.907 361.861 350.797C365.41 358.687 370.204 365.65 375.968 371.288L626.823 616.853C627.818 617.827 628.453 619.24 628.589 620.783C628.726 622.325 628.353 623.87 627.552 625.079Z" fill="#CCCCCC"/>
<path d="M681.374 529.007L418.895 272.064C418.796 271.967 418.714 271.848 418.653 271.713C418.593 271.578 418.555 271.43 418.541 271.278C418.528 271.125 418.539 270.97 418.575 270.823C418.61 270.675 418.669 270.538 418.749 270.418C418.828 270.299 418.926 270.199 419.037 270.126C419.148 270.052 419.27 270.006 419.396 269.989C419.521 269.973 419.649 269.986 419.77 270.03C419.891 270.073 420.005 270.145 420.103 270.241L682.582 527.185C682.681 527.281 682.763 527.4 682.824 527.535C682.885 527.67 682.923 527.818 682.936 527.971C682.95 528.124 682.939 528.278 682.903 528.426C682.868 528.574 682.808 528.711 682.729 528.831C682.649 528.951 682.551 529.05 682.44 529.124C682.329 529.198 682.207 529.244 682.081 529.26C681.956 529.277 681.828 529.263 681.707 529.219C681.585 529.176 681.472 529.104 681.374 529.007V529.007Z" fill="#CCCCCC"/>
<path d="M666.872 550.873L404.393 293.93C404.194 293.735 404.067 293.452 404.04 293.144C404.013 292.836 404.088 292.527 404.248 292.286C404.408 292.044 404.64 291.89 404.894 291.856C405.148 291.823 405.402 291.913 405.601 292.108L668.08 549.051C668.179 549.147 668.261 549.266 668.322 549.401C668.383 549.536 668.421 549.684 668.435 549.837C668.448 549.99 668.437 550.145 668.401 550.292C668.366 550.44 668.306 550.577 668.227 550.697C668.148 550.817 668.05 550.916 667.938 550.99C667.827 551.064 667.705 551.11 667.579 551.126C667.454 551.143 667.326 551.129 667.205 551.085C667.084 551.042 666.97 550.97 666.872 550.873Z" fill="#CCCCCC"/>
<path d="M652.37 572.74L389.891 315.797C389.692 315.602 389.565 315.319 389.537 315.011C389.51 314.702 389.585 314.393 389.745 314.151C389.905 313.91 390.138 313.755 390.392 313.722C390.646 313.689 390.9 313.78 391.099 313.974L653.578 570.918C653.677 571.014 653.759 571.133 653.819 571.268C653.88 571.403 653.918 571.551 653.932 571.704C653.945 571.856 653.934 572.011 653.898 572.158C653.863 572.306 653.803 572.443 653.724 572.563C653.645 572.682 653.547 572.782 653.436 572.856C653.325 572.929 653.203 572.976 653.077 572.992C652.951 573.008 652.824 572.995 652.703 572.951C652.582 572.908 652.468 572.836 652.37 572.74V572.74Z" fill="#CCCCCC"/>
<path d="M637.867 594.606L375.388 337.663C375.289 337.567 375.207 337.448 375.147 337.313C375.086 337.178 375.048 337.03 375.034 336.877C375.021 336.724 375.032 336.57 375.068 336.423C375.103 336.275 375.163 336.138 375.242 336.018C375.321 335.898 375.419 335.799 375.53 335.725C375.641 335.652 375.763 335.605 375.889 335.589C376.015 335.572 376.142 335.586 376.263 335.629C376.385 335.673 376.498 335.745 376.596 335.841L639.075 592.784C639.174 592.88 639.256 593 639.317 593.134C639.378 593.269 639.416 593.417 639.43 593.57C639.443 593.723 639.432 593.878 639.396 594.025C639.361 594.173 639.301 594.311 639.222 594.43C639.143 594.55 639.045 594.65 638.933 594.723C638.822 594.797 638.7 594.843 638.575 594.86C638.449 594.876 638.321 594.862 638.2 594.819C638.079 594.775 637.965 594.703 637.867 594.606Z" fill="#CCCCCC"/>
<path d="M307.187 453.231H328.421V469.474H293.818C293.818 467.341 294.164 465.229 294.836 463.258C295.507 461.287 296.492 459.497 297.734 457.988C298.975 456.48 300.449 455.284 302.071 454.467C303.693 453.651 305.432 453.231 307.187 453.231Z" fill="#2F2E41"/>
<path d="M194.703 453.231H215.937V469.474H181.333C181.333 467.341 181.679 465.229 182.351 463.258C183.023 461.287 184.008 459.497 185.249 457.988C186.491 456.48 187.965 455.284 189.587 454.467C191.209 453.651 192.947 453.231 194.703 453.231Z" fill="#2F2E41"/>
<path d="M250.354 74.338V68.4876C250.354 58.4797 253.626 48.8818 259.451 41.8052C265.276 34.7285 273.176 30.7529 281.413 30.7529H281.413C289.651 30.7529 297.551 34.7285 303.376 41.8052C309.201 48.8818 312.473 58.4797 312.473 68.4876V74.338C312.473 81.5529 310.114 88.4724 305.915 93.5741C301.715 98.6759 296.02 101.542 290.081 101.542H272.745C269.805 101.542 266.893 100.838 264.176 99.4712C261.46 98.1041 258.991 96.1003 256.912 93.5741C254.833 91.048 253.183 88.049 252.058 84.7485C250.933 81.4479 250.354 77.9104 250.354 74.338Z" fill="#2F2E41"/>
<path d="M281.413 103.555C294.477 103.555 305.068 90.6887 305.068 74.8171C305.068 58.9456 294.477 46.0791 281.413 46.0791C268.349 46.0791 257.759 58.9456 257.759 74.8171C257.759 90.6887 268.349 103.555 281.413 103.555Z" fill="#FFB8B8"/>
<path d="M152.748 173.586C153.708 172.485 154.855 171.653 156.108 171.148C157.362 170.644 158.691 170.48 160.002 170.667C161.313 170.854 162.575 171.388 163.698 172.231C164.821 173.075 165.778 174.207 166.501 175.549L186.779 170.889L192.115 185.169L163.404 191.261C161.468 192.589 159.199 193.008 157.026 192.439C154.853 191.87 152.927 190.352 151.614 188.173C150.301 185.995 149.691 183.307 149.9 180.618C150.109 177.929 151.122 175.427 152.748 173.586V173.586Z" fill="#FFB8B8"/>
<path d="M262.972 121.653L263.237 122.141L229.986 148.754L173.878 170.521C173.134 170.811 172.496 171.406 172.072 172.203C171.649 173.001 171.466 173.952 171.555 174.895L172.779 187.703C172.833 188.27 172.984 188.817 173.222 189.309C173.461 189.8 173.781 190.226 174.163 190.559C174.545 190.891 174.98 191.123 175.439 191.24C175.899 191.356 176.374 191.354 176.833 191.235L229.64 177.483C232.195 176.822 234.612 175.529 236.739 173.686L274.095 141.396C275.45 140.219 276.53 138.636 277.232 136.802C277.934 134.967 278.233 132.943 278.1 130.927C277.963 128.907 277.396 126.966 276.454 125.294C275.512 123.622 274.228 122.277 272.729 121.39C271.229 120.504 269.565 120.107 267.901 120.239C266.237 120.37 264.63 121.026 263.237 122.141L262.972 121.653Z" fill="#CCCCCC"/>
<path d="M315.25 442.412C314.405 442.412 313.578 442.113 312.87 441.552C312.162 440.991 311.605 440.191 311.265 439.251L260.789 287.727C260.671 287.398 260.473 287.121 260.222 286.933C259.971 286.745 259.678 286.655 259.384 286.675C259.089 286.695 258.806 286.825 258.574 287.046C258.342 287.267 258.171 287.569 258.084 287.912L216.904 435.426C216.73 436.113 216.442 436.749 216.059 437.295C215.675 437.842 215.204 438.287 214.673 438.604C214.142 438.921 213.564 439.102 212.974 439.138C212.383 439.173 211.793 439.061 211.239 438.809L197.43 432.518C196.681 432.179 196.023 431.595 195.531 430.83C195.038 430.064 194.73 429.148 194.64 428.183C188.428 362.434 242.602 196.475 243.15 194.807L243.302 194.345L292.686 207.617L292.789 207.752C312.492 233.866 328.687 398.569 331.734 431.321C331.847 432.504 331.626 433.699 331.105 434.709C330.585 435.718 329.798 436.482 328.872 436.875L316.683 442.112C316.223 442.311 315.738 442.412 315.25 442.412Z" fill="#2F2E41"/>
<path d="M272.699 212.959C260.734 212.959 247.394 210.061 243.288 198.098L243.194 197.824L243.321 197.569C246.562 191.108 250.846 180.087 248.544 178.019C244.008 173.945 241.807 167.242 242.003 158.098C242.427 138.247 253.56 120.622 269.707 114.241H269.707C274.214 112.489 278.8 111.054 283.444 109.944C286.829 109.114 290.323 109.206 293.675 110.211C297.028 111.217 300.155 113.113 302.833 115.761C305.545 118.427 307.737 121.79 309.251 125.608C310.766 129.425 311.566 133.603 311.593 137.841C311.763 159.055 309.074 188.602 295.305 208.888C294.66 209.829 293.762 210.463 292.77 210.679C286.145 212.135 279.43 212.898 272.699 212.959Z" fill="#CCCCCC"/>
<path d="M268.249 212.165C268.9 209.327 270.446 206.916 272.552 205.456C274.658 203.996 277.154 203.605 279.496 204.367C279.974 204.53 280.44 204.74 280.89 204.995L296.287 187.972L306.995 196.736L284.977 220.407C283.982 222.585 282.417 224.296 280.53 225.269C278.643 226.241 276.542 226.419 274.562 225.774C273.409 225.39 272.33 224.733 271.387 223.84C270.444 222.946 269.656 221.835 269.069 220.569C268.482 219.304 268.107 217.909 267.966 216.467C267.825 215.024 267.921 213.562 268.249 212.165Z" fill="#FFB8B8"/>
<path d="M293.847 212.381C292.848 212.381 291.88 211.962 291.107 211.193L285.035 205.165C284.529 204.662 284.123 204.027 283.848 203.307C283.572 202.587 283.434 201.801 283.444 201.007C283.454 200.213 283.612 199.432 283.906 198.722C284.2 198.013 284.622 197.393 285.14 196.91L310.606 173.181C310.908 172.899 311.106 172.483 311.157 172.024C311.208 171.565 311.108 171.1 310.879 170.73L295.161 145.485C293.335 142.561 292.419 138.947 292.575 135.282C292.732 131.618 293.951 128.138 296.016 125.46C298.191 122.606 301.17 120.85 304.361 120.54C307.552 120.23 310.723 121.388 313.243 123.786L313.343 123.913L329.756 152.466C331.531 154.156 332.96 156.322 333.932 158.795C334.903 161.268 335.392 163.98 335.358 166.72C335.324 169.459 334.77 172.152 333.738 174.589C332.706 177.025 331.224 179.139 329.409 180.764L296.427 211.348C295.68 212.019 294.776 212.381 293.847 212.381Z" fill="#CCCCCC"/>
<path d="M280.452 32.6444C277.371 20.6646 283.841 6.93531 293.406 2.19342C302.971 -2.54847 314.414 0.766254 322.485 8.60057C330.556 16.4349 335.564 28.1692 338.217 40.299C340.87 52.4288 341.374 65.0773 341.864 77.614C353.616 80.2366 361.61 97.1708 357.539 110.819C353.468 124.466 338.4 131.246 327.993 124.113C317.587 116.98 314.573 97.8047 322.083 86.5146C325.637 81.1724 327.622 74.5425 327.724 67.6749C327.827 60.8072 326.04 54.0945 322.647 48.5999C319.255 43.1052 314.45 39.1428 308.994 37.3401C303.539 35.5374 297.744 35.9975 292.528 38.6476C286.736 41.5902 279.469 33.9446 280.452 32.6444Z" fill="#2F2E41"/>
<path d="M716.037 631H1.42256C1.16714 631 0.92217 630.877 0.741555 630.658C0.56094 630.438 0.459473 630.141 0.459473 629.83C0.459473 629.52 0.56094 629.222 0.741555 629.003C0.92217 628.783 1.16714 628.66 1.42256 628.66H716.037C716.292 628.66 716.537 628.783 716.718 629.003C716.898 629.222 717 629.52 717 629.83C717 630.141 716.898 630.438 716.718 630.658C716.537 630.877 716.292 631 716.037 631Z" fill="#CCCCCC"/>
<path d="M326.063 457.053L315.053 457.052L309.816 405.457L326.067 405.459L326.063 457.053Z" fill="#FFB8B8"/>
<path d="M213.578 457.053L202.568 457.052L197.332 405.457L213.582 405.459L213.578 457.053Z" fill="#FFB8B8"/>
</svg>
